<svg width="169" height="50" viewBox="0 0 169 50" fill="none" xmlns="http://www.w3.org/2000/svg">
<path d="M49.5374 16.7393H56.6232C60.5481 16.7393 62.5859 18.376 62.5859 21.4493V21.6024C62.6418 22.503 62.3781 23.3941 61.8427 24.1137C61.3072 24.8333 60.5356 25.3335 59.6682 25.5235C60.707 25.6165 61.6678 26.1224 62.3419 26.9315C63.0161 27.7406 63.3492 28.7875 63.269 29.8449V29.9509C63.269 33.3068 61.1039 35.0731 56.9474 35.0731H49.5374V16.7393ZM55.9632 24.2636C57.9315 24.2636 58.7072 23.5453 58.7072 21.9085V21.8026C58.7072 20.2718 57.8504 19.5771 55.9401 19.5771H53.5202V24.2871L55.9632 24.2636ZM56.3106 32.1882C58.3251 32.1882 59.2398 31.258 59.2398 29.5977V29.4917C59.2398 27.7961 58.3252 26.9365 56.1137 26.9365H53.5202V32.2L56.3106 32.1882Z" fill="#5F5E5E"/>
<path d="M64.3344 31.3404C64.3344 28.2082 67.1479 27.0307 71.1886 27.0307H72.6706V26.5008C72.6706 24.9112 72.1959 24.0399 70.5287 24.0399C70.2588 24.0073 69.9852 24.0312 69.7248 24.1102C69.4643 24.1892 69.2225 24.3215 69.0143 24.4991C68.806 24.6767 68.6357 24.8958 68.5139 25.1428C68.392 25.3899 68.3211 25.6597 68.3057 25.9356H64.8322C65.0638 22.7564 67.5299 21.3434 70.7602 21.3434C73.9905 21.3434 76.2714 22.674 76.2714 26.3124V35.0496H72.7169V33.4364C72.2708 34.0756 71.6694 34.5863 70.9714 34.9185C70.2733 35.2508 69.5024 35.3933 68.734 35.3322C66.349 35.3322 64.3344 34.1546 64.3344 31.3404ZM72.6706 30.3631V29.1856H71.2581C69.1393 29.1856 67.912 29.6566 67.912 31.0814C67.912 32.0587 68.4909 32.7063 69.8224 32.7063C71.4317 32.7534 72.6706 31.8467 72.6706 30.3631Z" fill="#5F5E5E"/>
<path d="M77.8111 30.8459H81.215C81.3655 32.0234 81.9444 32.7534 83.5306 32.7534C84.9432 32.7534 85.6031 32.2118 85.6031 31.2815C85.6031 30.3513 84.8158 29.9745 82.9286 29.7037C79.4551 29.162 78.0658 28.1376 78.0658 25.5235C78.0658 22.9095 80.5898 21.3434 83.2759 21.3434C86.2052 21.3434 88.3934 22.4267 88.7176 25.5H85.3716C85.1747 24.3931 84.5611 23.8868 83.3107 23.8868C82.0602 23.8868 81.4466 24.452 81.4466 25.2645C81.4466 26.0769 82.0718 26.442 83.9822 26.7246C87.282 27.2074 89.0997 28.0552 89.0997 30.9283C89.0997 33.8014 87.0388 35.3322 83.5538 35.3322C80.0688 35.3322 77.9384 33.7425 77.8111 30.8459Z" fill="#5F5E5E"/>
<path d="M90.0376 28.5144V28.3142C89.9937 27.3939 90.1382 26.4745 90.462 25.614C90.7857 24.7535 91.2817 23.9709 91.9185 23.3155C92.5552 22.6602 93.3189 22.1465 94.161 21.807C95.0032 21.4675 95.9055 21.3096 96.8108 21.3433C100.215 21.3433 103.237 23.3686 103.237 28.1611V29.1855H93.7773C93.8699 31.411 95.0625 32.7181 97.0423 32.7181C98.7327 32.7181 99.5664 31.9762 99.7979 30.8458H103.271C102.843 33.7425 100.574 35.3557 96.9729 35.3557C92.9321 35.3321 90.0376 32.8005 90.0376 28.5144ZM99.6821 26.9012C99.5664 24.8759 98.5475 23.9574 96.8108 23.9574C96.0289 23.9536 95.276 24.2582 94.7104 24.8072C94.1447 25.3561 93.8102 26.1067 93.7773 26.9012H99.6821Z" fill="#5F5E5E"/>
<path d="M104.198 28.5142V28.3141C104.154 27.3918 104.299 26.4703 104.624 25.6081C104.949 24.746 105.447 23.9621 106.086 23.3065C106.726 22.6508 107.492 22.1376 108.337 21.7996C109.182 21.4616 110.087 21.3062 110.994 21.3432C114.051 21.3432 116.864 22.6974 117.2 26.5478H113.726C113.703 26.2173 113.615 25.8949 113.467 25.5998C113.319 25.3046 113.114 25.0427 112.865 24.8296C112.615 24.6165 112.326 24.4566 112.015 24.3594C111.703 24.2621 111.376 24.2295 111.052 24.2634C109.165 24.2634 107.903 25.7 107.903 28.267V28.4671C107.903 31.1636 109.06 32.5413 111.133 32.5413C111.486 32.5619 111.839 32.511 112.172 32.3915C112.505 32.272 112.811 32.0863 113.073 31.8452C113.335 31.6041 113.547 31.3125 113.697 30.9872C113.847 30.662 113.932 30.3097 113.946 29.9508H117.246C117.049 33.1301 114.78 35.332 110.948 35.332C107.115 35.332 104.198 32.8946 104.198 28.5142Z" fill="#5F5E5E"/>
<path d="M118.092 31.3404C118.092 28.2082 120.905 27.0307 124.934 27.0307H126.428V26.5008C126.428 24.9112 125.942 24.0398 124.286 24.0398C124.014 24.0038 123.738 24.0251 123.475 24.1025C123.212 24.1799 122.967 24.3116 122.756 24.4896C122.545 24.6675 122.373 24.8878 122.25 25.1366C122.126 25.3854 122.055 25.6574 122.04 25.9356H118.566C118.798 22.7563 121.264 21.3433 124.483 21.3433C127.701 21.3433 130.005 22.6739 130.005 26.3124V35.0495H126.451V33.4363C126.005 34.0756 125.403 34.5862 124.705 34.9185C124.007 35.2508 123.236 35.3933 122.468 35.3321C120.152 35.3321 118.092 34.1546 118.092 31.3404ZM126.428 30.363V29.1855H125.038C122.92 29.1855 121.681 29.6565 121.681 31.0813C121.681 32.0587 122.271 32.7063 123.603 32.7063C125.235 32.7534 126.474 31.8467 126.474 30.363H126.428Z" fill="#5F5E5E"/>
<path d="M132.575 21.6023H136.223V23.6512C136.62 22.9232 137.206 22.3193 137.915 21.9044C138.625 21.4894 139.433 21.2791 140.252 21.2962C141.033 21.2326 141.814 21.4276 142.477 21.852C143.141 22.2763 143.652 22.9075 143.934 23.6512C144.42 22.9126 145.081 22.3099 145.855 21.8985C146.63 21.487 147.494 21.2799 148.368 21.2962C150.811 21.2962 152.698 22.8623 152.698 26.4183V35.0024H149.074V26.8776C149.074 25.1584 148.322 24.393 147.002 24.393C146.651 24.3775 146.3 24.4392 145.975 24.5739C145.649 24.7086 145.356 24.9132 145.116 25.1736C144.875 25.4341 144.692 25.7442 144.58 26.083C144.468 26.4218 144.429 26.7812 144.466 27.1366V35.0495H140.831V26.8776C140.831 25.1584 140.055 24.393 138.77 24.393C138.418 24.3757 138.066 24.4361 137.739 24.5701C137.412 24.704 137.118 24.9083 136.876 25.169C136.634 25.4296 136.45 25.7404 136.337 26.0801C136.225 26.4197 136.185 26.7801 136.223 27.1366V35.0495H132.575V21.6023Z" fill="#5F5E5E"/>
<path d="M155.199 21.6023H158.858V23.7101C159.294 22.9729 159.91 22.363 160.647 21.94C161.383 21.517 162.215 21.2952 163.061 21.2962C166.291 21.2962 168.85 23.7336 168.85 28.1611V28.373C168.85 32.8004 166.384 35.285 163.061 35.285C162.216 35.3203 161.377 35.1194 160.636 34.7042C159.895 34.2891 159.28 33.6755 158.858 32.93V39.6182H155.199V21.6023ZM165.099 28.1964C165.099 25.4763 163.79 24.1458 161.949 24.1458C160.108 24.1458 158.731 25.4999 158.731 28.1964V28.3966C158.731 31.0813 159.993 32.3883 161.984 32.3883C163.976 32.3883 165.099 31.0224 165.099 28.4437V28.1964Z" fill="#5F5E5E"/>
<path fill-rule="evenodd" clip-rule="evenodd" d="M22.4679 10.3395C12.1941 10.3395 6.83617 19.1896 3.83627 27.8398C3.47363 28.8854 2.34616 29.4341 1.31799 29.0653C0.582597 28.8015 0.097185 28.1398 0.0130582 27.4018C-0.0204345 27.1079 0.0096768 26.802 0.11294 26.5042C3.15682 17.7272 9.37704 6.32422 22.4679 6.32422C29.3104 6.32422 34.2081 10.928 37.3756 16.4589C40.5515 22.0043 42.2447 28.8707 42.6263 34.4148C42.6538 34.8133 42.5637 35.211 42.3676 35.5571C40.5332 38.7956 37.4814 40.9061 34.0027 42.1987C30.5326 43.4881 26.5129 44.0149 22.4838 44.0162C19.0605 44.0706 15.666 43.3738 12.5313 41.9734C9.3917 40.5708 6.58685 38.4953 4.30846 35.8889C3.82376 35.3344 3.67926 34.5533 3.93268 33.8575L3.93417 33.8535L3.937 33.8457L3.94665 33.8195L3.9816 33.7258C4.01174 33.6456 4.05543 33.5305 4.11172 33.3856C4.22422 33.096 4.38752 32.686 4.59397 32.1954C5.00505 31.2184 5.59564 29.9017 6.30509 28.5723C7.0052 27.2604 7.86612 25.85 8.83427 24.7388C9.71686 23.7258 11.0887 22.4918 12.8446 22.4797L12.858 22.4796C14.0988 22.4796 15.118 23.0574 15.8517 23.6128C16.5912 24.1727 17.2628 24.8841 17.801 25.4634C17.8627 25.5298 17.9227 25.5945 17.9811 25.6575C18.4823 26.198 18.8656 26.6113 19.2298 26.9208C19.2708 26.9556 19.3083 26.9863 19.3426 27.0133C19.4611 26.8902 19.6024 26.7289 19.7651 26.5238C20.3436 25.7943 20.9935 24.7667 21.6224 23.6666C22.243 22.581 22.8079 21.4874 23.2197 20.6602C23.4248 20.248 23.5904 19.9052 23.7041 19.6668C23.7609 19.5476 23.8047 19.4547 23.8339 19.3924L23.8665 19.3225L23.8742 19.3058L23.8758 19.3023C24.3386 18.2985 25.5142 17.8656 26.5013 18.3362C27.4885 18.8068 27.9136 20.0022 27.4509 21.0062L27.4466 21.0154L27.4363 21.0375L27.3984 21.1189C27.3655 21.189 27.3178 21.2904 27.2567 21.4185C27.1346 21.6746 26.9589 22.0383 26.7421 22.4739C26.3097 23.3423 25.7074 24.5096 25.0356 25.6847C24.3721 26.8454 23.6043 28.0787 22.838 29.0448C22.4581 29.5239 22.0272 30.0031 21.5614 30.3799C21.1497 30.713 20.4234 31.205 19.4923 31.205C18.2611 31.205 17.2911 30.5058 16.6981 30.0019C16.1394 29.527 15.5811 28.9234 15.1122 28.4164C15.0503 28.3495 14.99 28.2843 14.9314 28.2212C14.3755 27.6229 13.9211 27.1569 13.4941 26.8336C13.1199 26.5503 12.9289 26.5037 12.874 26.4963C12.874 26.4963 12.87 26.4978 12.8666 26.499C12.8062 26.5207 12.4436 26.6507 11.7892 27.4018C11.1108 28.1805 10.4166 29.2856 9.77509 30.4876C9.14292 31.6722 8.60537 32.868 8.22372 33.7751C8.17454 33.8919 8.12809 34.0037 8.08451 34.1096C9.82189 35.8702 11.8673 37.2911 14.1192 38.2972C16.7385 39.4673 19.5753 40.0486 22.4357 40.0012L22.4679 40.0009C26.2023 40.0009 29.7371 39.5088 32.6478 38.4273C35.3256 37.4322 37.3682 35.9821 38.638 34.0569C38.2077 29.1231 36.6624 23.1915 33.964 18.4798C31.1399 13.5485 27.3076 10.3395 22.4679 10.3395ZM19.0181 27.2986C19.0181 27.2986 19.0268 27.2919 19.0433 27.2833C19.0263 27.295 19.0181 27.2986 19.0181 27.2986Z" fill="#5F5E5E"/>
</svg>
