<svg width="173" height="50" viewBox="0 0 173 50" fill="none" xmlns="http://www.w3.org/2000/svg">
<path d="M148.757 23.5248C150.941 23.5248 151.782 24.8764 151.9 26.0533C151.901 26.071 151.899 26.089 151.894 26.1059C151.888 26.1228 151.879 26.1383 151.867 26.1515C151.855 26.1646 151.841 26.1751 151.825 26.1823C151.809 26.1895 151.791 26.1931 151.774 26.193H145.777C145.759 26.193 145.741 26.1892 145.725 26.1817C145.708 26.1743 145.694 26.1634 145.682 26.1498C145.67 26.1362 145.661 26.1202 145.656 26.1029C145.651 26.0855 145.649 26.0673 145.651 26.0493C145.813 24.8993 146.821 23.5248 148.757 23.5248ZM152.044 31.0075C152.004 31.0073 151.965 31.0167 151.929 31.0349C151.894 31.0532 151.863 31.0797 151.84 31.1123C151.299 31.8829 150.419 32.3581 149.104 32.3581C147.293 32.3581 145.721 31.1542 145.552 29.4483C145.55 29.4306 145.552 29.4128 145.558 29.3959C145.563 29.3791 145.572 29.3636 145.584 29.3504C145.596 29.3373 145.61 29.3268 145.626 29.3196C145.642 29.3123 145.659 29.3086 145.677 29.3085H156.452C156.483 29.2127 156.546 28.482 156.546 27.8142C156.546 22.7312 153.55 19.7125 148.694 19.7125C144.626 19.7125 140.873 22.9528 140.873 28.0368C140.873 33.3434 144.721 36.4568 149.041 36.4568C152.946 36.4568 155.42 34.2468 156.222 31.5755C156.227 31.5595 156.254 31.4597 156.283 31.314C156.291 31.2769 156.29 31.2386 156.281 31.2018C156.273 31.165 156.256 31.1307 156.232 31.1013C156.208 31.072 156.179 31.0483 156.145 31.0321C156.111 31.0158 156.074 31.0075 156.037 31.0075H152.044ZM161.572 27.9559L156.463 20.589C156.437 20.5507 156.421 20.5059 156.418 20.4594C156.415 20.4129 156.425 20.3664 156.446 20.3251C156.468 20.2838 156.5 20.2493 156.539 20.2252C156.579 20.2011 156.624 20.1885 156.67 20.1887H161.693C161.779 20.1887 161.858 20.2316 161.905 20.3035L164.53 24.3463C164.58 24.4232 164.692 24.4222 164.741 24.3443L167.306 20.3065C167.329 20.2704 167.36 20.2407 167.397 20.2201C167.434 20.1995 167.476 20.1887 167.518 20.1887H172.253C172.458 20.1887 172.578 20.4213 172.46 20.59L167.42 27.7633C167.39 27.8059 167.373 27.857 167.373 27.9093C167.373 27.9617 167.389 28.0128 167.419 28.0557C169.069 30.4315 170.954 33.1767 172.647 35.5794C172.765 35.7481 172.647 35.9797 172.442 35.9797H167.453C167.411 35.9799 167.37 35.9695 167.333 35.9497C167.297 35.9298 167.265 35.901 167.242 35.8659L164.52 31.6913C164.509 31.6738 164.493 31.6594 164.475 31.6495C164.456 31.6396 164.436 31.6344 164.415 31.6344C164.394 31.6344 164.374 31.6396 164.356 31.6495C164.337 31.6594 164.322 31.6738 164.31 31.6913C163.495 32.9171 162.429 34.6241 161.621 35.8659C161.598 35.9011 161.567 35.9299 161.53 35.9498C161.493 35.9697 161.452 35.9799 161.41 35.9797H156.76C156.714 35.98 156.669 35.9675 156.63 35.9436C156.59 35.9197 156.558 35.8853 156.537 35.8442C156.515 35.8031 156.505 35.7569 156.508 35.7105C156.511 35.6642 156.526 35.6195 156.553 35.5814L161.573 28.2454C161.602 28.2029 161.618 28.1524 161.618 28.1007C161.618 28.0489 161.602 27.9984 161.573 27.9559H161.572ZM134.503 35.7261V13.231C134.503 13.0903 134.617 12.9765 134.756 12.9765H139.044C139.184 12.9765 139.297 13.0903 139.297 13.231V35.7261C139.297 35.8659 139.184 35.9797 139.044 35.9797H134.756C134.723 35.9798 134.69 35.9734 134.659 35.9607C134.629 35.948 134.601 35.9294 134.578 35.9058C134.554 35.8823 134.535 35.8543 134.523 35.8235C134.51 35.7926 134.503 35.7596 134.503 35.7261ZM127.439 35.7261V13.231C127.439 13.0903 127.553 12.9765 127.692 12.9765H131.981C132.12 12.9765 132.232 13.0903 132.232 13.231V35.7261C132.232 35.8659 132.12 35.9797 131.981 35.9797H127.692C127.659 35.9798 127.626 35.9734 127.596 35.9607C127.565 35.948 127.537 35.9294 127.514 35.9058C127.49 35.8823 127.472 35.8543 127.459 35.8235C127.446 35.7926 127.44 35.7596 127.439 35.7261ZM116.833 32.2623C118.757 32.2623 120.397 30.738 120.397 28.0687C120.397 25.3366 118.788 23.9061 116.833 23.9061C114.783 23.9061 113.238 25.3366 113.238 28.0687C113.238 30.6741 114.847 32.2633 116.833 32.2633V32.2623ZM120.428 33.9463C119.734 35.4716 118.158 36.4249 116.203 36.4249C111.598 36.4249 108.414 32.8982 108.414 28.0368C108.414 23.3351 111.41 19.7115 116.045 19.7115C118.851 19.7115 120.081 21.2688 120.397 21.9995V20.4422C120.397 20.3025 120.509 20.1887 120.649 20.1887H124.78C124.918 20.1887 125.032 20.3025 125.032 20.4432V35.7261C125.032 35.8659 124.919 35.9797 124.78 35.9797H120.652C120.619 35.9797 120.586 35.973 120.555 35.96C120.524 35.9471 120.497 35.928 120.473 35.9041C120.45 35.8801 120.431 35.8517 120.419 35.8205C120.406 35.7892 120.4 35.7558 120.4 35.7221C120.408 35.1482 120.428 33.8215 120.428 33.9463ZM98.1851 20.3634L101.058 29.1658C101.097 29.2856 101.265 29.2816 101.299 29.1608L103.753 20.3743C103.768 20.3208 103.799 20.2737 103.843 20.2402C103.887 20.2067 103.941 20.1886 103.996 20.1887H108.16C108.331 20.1887 108.452 20.3544 108.402 20.5181L103.701 35.801C103.686 35.8531 103.654 35.8986 103.61 35.931C103.567 35.9633 103.515 35.9807 103.461 35.9807H99.0663C99.0136 35.9806 98.9622 35.9638 98.9194 35.9326C98.8765 35.9015 98.8444 35.8575 98.8275 35.807L95.6006 26.1421C95.5611 26.0263 95.3983 26.0273 95.3608 26.1421L92.1931 35.805C92.1765 35.8558 92.1445 35.9 92.1016 35.9314C92.0588 35.9628 92.0072 35.9797 91.9543 35.9797H87.4653C87.4117 35.9797 87.3595 35.9625 87.3162 35.9306C87.2729 35.8987 87.2408 35.8536 87.2245 35.802L82.4631 20.5191C82.4513 20.4809 82.4486 20.4405 82.4551 20.4011C82.4616 20.3617 82.4773 20.3244 82.5007 20.2922C82.5242 20.26 82.5548 20.2339 82.5901 20.2159C82.6254 20.1979 82.6643 20.1886 82.7038 20.1887H87.1524C87.2649 20.1887 87.3646 20.2645 87.3952 20.3743L89.8494 29.1328C89.883 29.2526 90.0507 29.2566 90.0902 29.1378L92.9934 20.3634C93.0102 20.3125 93.0424 20.2682 93.0854 20.2369C93.1285 20.2055 93.1802 20.1886 93.2332 20.1887H97.9453C98.0539 20.1887 98.1516 20.2586 98.1851 20.3634ZM81.1624 24.6428C81.1624 24.6799 81.1543 24.7166 81.1388 24.7502C81.1233 24.7839 81.1007 24.8137 81.0726 24.8376C81.0445 24.8614 81.0115 24.8788 80.9761 24.8884C80.9406 24.8981 80.9035 24.8997 80.8674 24.8933C80.4648 24.8245 80.0569 24.7918 79.6486 24.7955C77.7243 24.7955 75.9905 25.9395 75.9905 29.0849V35.7261C75.9905 35.8659 75.878 35.9797 75.7389 35.9797H71.4501C71.4171 35.9798 71.3843 35.9734 71.3538 35.9607C71.3232 35.948 71.2954 35.9294 71.2719 35.9058C71.2484 35.8823 71.2298 35.8543 71.217 35.8235C71.2043 35.7926 71.1976 35.7596 71.1975 35.7261V20.4432C71.1975 20.3035 71.31 20.1887 71.4501 20.1887H75.581C75.7201 20.1887 75.8326 20.3025 75.8326 20.4432V22.3179C76.6527 20.5381 78.6401 20.03 79.9013 20.03C80.2842 20.03 80.667 20.0719 80.966 20.1378C81.0815 20.1637 81.1624 20.2675 81.1624 20.3863V24.6428ZM64.0391 35.7261V20.4432C64.0391 20.3035 64.1526 20.1887 64.2917 20.1887H68.5805C68.7196 20.1887 68.8331 20.3025 68.8331 20.4432V35.7261C68.8331 35.8659 68.7196 35.9797 68.5805 35.9797H64.2917C64.2587 35.9798 64.2259 35.9734 64.1953 35.9607C64.1648 35.948 64.1369 35.9294 64.1135 35.9058C64.09 35.8823 64.0714 35.8543 64.0586 35.8235C64.0459 35.7926 64.0392 35.7596 64.0391 35.7261ZM66.4045 12.5312C67.9814 12.5312 69.2426 13.802 69.2426 15.3592C69.2426 16.9165 67.9814 18.1872 66.4045 18.1872C64.8907 18.1872 63.6296 16.9165 63.6296 15.3592C63.6296 13.802 64.8907 12.5312 66.4045 12.5312ZM48.766 26.8289H53.8344C53.9212 26.8289 53.9824 26.7431 53.9528 26.6602L51.4502 19.3871C51.4417 19.3619 51.4257 19.3401 51.4044 19.3245C51.383 19.309 51.3574 19.3006 51.3311 19.3005C51.3049 19.3004 51.2792 19.3086 51.2577 19.3239C51.2363 19.3393 51.2201 19.361 51.2114 19.3861L48.6486 26.6602C48.619 26.7421 48.6802 26.8299 48.767 26.8299L48.766 26.8289ZM55.4103 31.4048H47.1259C47.074 31.4049 47.0233 31.4212 46.9809 31.4516C46.9385 31.482 46.9064 31.5249 46.8891 31.5745L45.399 35.811C45.3816 35.8607 45.3494 35.9037 45.3068 35.9341C45.2642 35.9645 45.2133 35.9808 45.1612 35.9807H40.4698C40.429 35.9809 40.3887 35.9711 40.3525 35.9521C40.3163 35.9331 40.2852 35.9054 40.2619 35.8715C40.2386 35.8376 40.2237 35.7985 40.2187 35.7575C40.2137 35.7165 40.2186 35.6749 40.233 35.6363L48.4631 13.6173C48.4812 13.5689 48.5134 13.5271 48.5556 13.4977C48.5977 13.4683 48.6477 13.4525 48.6989 13.4526H54.1205C54.2251 13.4526 54.3199 13.5185 54.3564 13.6183L62.4937 35.6373C62.5077 35.6758 62.5123 35.7172 62.5071 35.7579C62.5019 35.7986 62.487 35.8374 62.4637 35.8711C62.4405 35.9047 62.4095 35.9321 62.3735 35.9511C62.3375 35.97 62.2975 35.9798 62.2569 35.9797H57.3751C57.323 35.9797 57.2722 35.9633 57.2296 35.933C57.187 35.9026 57.1548 35.8596 57.1373 35.81L55.6472 31.5745C55.6297 31.525 55.5976 31.4822 55.5552 31.4518C55.5129 31.4214 55.4623 31.405 55.4103 31.4048Z" fill="#5F5E5E"/>
<path fill-rule="evenodd" clip-rule="evenodd" d="M34.1582 21.9051C34.772 22.5095 35.1978 23.2823 35.3831 24.1282C35.5684 24.9742 35.5052 25.8566 35.2012 26.6667L32.8852 33.0314C32.2773 34.7024 30.8918 35.9952 29.1797 36.3326C28.3232 36.506 27.4363 36.4406 26.6138 36.1434C25.7913 35.8463 25.0641 35.3285 24.51 34.6455L10.6215 17.8134C10.5869 17.772 10.5423 17.7404 10.4919 17.722C10.4416 17.7035 10.3873 17.6987 10.3345 17.7081C10.2818 17.7175 10.2324 17.7407 10.1913 17.7755C10.1502 17.8103 10.1189 17.8554 10.1004 17.9062L5.58177 30.2693C5.48803 30.5248 5.7367 30.7724 5.98341 30.6706L11.5284 28.3797C11.841 28.2515 12.1764 28.19 12.5136 28.1991C12.8508 28.2082 13.1825 28.2877 13.4879 28.4326C13.7933 28.5775 14.0658 28.7847 14.2883 29.0412C14.5108 29.2976 14.6785 29.5978 14.7809 29.9229C15.1905 31.1937 14.5017 32.5662 13.2889 33.0673L6.04558 36.059C4.70449 36.6131 3.16406 36.5152 1.95619 35.6997C1.13306 35.1432 0.519384 34.3224 0.214273 33.3696C-0.0908373 32.4169 -0.0695691 31.388 0.274643 30.449L5.61335 15.8469C6.2459 14.1159 7.68667 12.8941 9.46788 12.5787C10.3353 12.4214 11.2285 12.5008 12.0555 12.8088C12.8825 13.1167 13.6134 13.642 14.173 14.3306L22.1446 23.9934L29.4767 20.9638C31.1059 20.291 32.9 20.6514 34.1582 21.9051ZM29.9296 26.7585C30.0224 26.503 29.7737 26.2554 29.527 26.3582L25.4761 28.0313L27.9057 30.977C27.9401 31.019 27.9849 31.0509 28.0355 31.0697C28.0861 31.0885 28.1407 31.0934 28.1938 31.084C28.2469 31.0746 28.2965 31.0512 28.3378 31.0161C28.379 30.981 28.4104 30.9355 28.4287 30.8842L29.9287 26.7585H29.9296Z" fill="#5F5E5E"/>
</svg>
