<svg width="182" height="50" viewBox="0 0 182 50" fill="none" xmlns="http://www.w3.org/2000/svg">
<path d="M76.268 30.1569V22.7537C76.268 22.5605 76.1408 22.4318 75.9501 22.4318H73.5335V19.5348H75.9501C76.1408 19.5348 76.268 19.406 76.268 19.2129V14.5778H79.702V19.2129C79.702 19.406 79.8292 19.5348 80.02 19.5348H83.3904V22.4318H80.02C79.8292 22.4318 79.702 22.5605 79.702 22.7537V29.3201C79.702 32.4102 80.7831 32.6677 82.1822 32.6677C82.6909 32.6677 83.454 32.6033 83.8991 32.5389V35.5646C83.3269 35.629 82.373 35.7578 81.2918 35.7578C79.9563 35.6934 76.268 35.6934 76.268 30.1569ZM169.622 31.9595L172.42 30.4788C173.056 31.9595 174.264 32.9252 175.663 32.9252C176.745 32.9252 177.953 32.4745 177.953 31.1226C177.953 30.2214 177.38 29.7063 176.045 29.2557L174.137 28.612C171.466 27.775 170.131 26.23 170.131 24.0412C170.131 21.273 172.42 19.2129 175.536 19.2129C178.016 19.2129 180.115 20.5648 181.132 22.6893L178.334 24.2342C177.698 22.8823 176.681 22.1099 175.473 22.1099C174.264 22.1099 173.438 22.7537 173.438 23.7193C173.438 24.5561 174.074 25.2 175.345 25.5861L177.253 26.23C180.051 27.1313 181.387 28.6762 181.387 30.8007C181.387 34.1484 178.525 35.8866 175.663 35.8866C172.802 35.8222 170.512 34.3415 169.622 31.9595ZM159.066 29.0625C159.002 29.1269 158.939 29.1913 158.939 29.2557V35.4359H155.441V12.582H158.939V25.0712C158.939 25.2 159.002 25.3287 159.129 25.3287C159.257 25.3931 159.384 25.3287 159.447 25.2643L165.107 19.4704H169.368L162.754 26.23C162.627 26.3587 162.627 26.4875 162.754 26.6162L169.94 35.4359H165.679L160.147 28.4832C160.083 28.4188 160.02 28.3544 159.956 28.3544C159.893 28.3544 159.829 28.3544 159.765 28.4188L159.066 29.0625ZM153.724 21.6592L151.498 23.7837C150.226 22.8181 148.954 22.3674 147.555 22.3674C144.63 22.3674 142.468 24.5561 142.468 27.5175C142.468 30.4788 144.63 32.6677 147.555 32.6677C148.827 32.6677 150.163 32.217 151.562 31.2514L153.533 33.3758C150.672 35.5003 149.145 35.8866 147.174 35.8866C144.821 35.8866 142.722 35.0496 141.196 33.5045C139.733 32.0239 138.907 29.8351 138.907 27.5175C138.907 22.6893 142.405 19.1485 147.237 19.1485C148.827 19.1485 151.18 19.406 153.724 21.6592ZM137.317 14.7709C137.317 15.9297 136.363 16.8954 135.218 16.8954C134.074 16.8954 133.12 15.9297 133.12 14.7709C133.12 13.6121 134.074 12.6464 135.218 12.6464C136.363 12.6464 137.317 13.6121 137.317 14.7709ZM136.999 35.4359H133.501V19.5348H136.999V35.4359ZM125.87 28.4832V35.5003H122.373V19.5992H125.807V21.5304C125.807 21.6592 125.87 21.7881 125.997 21.8523C126.125 21.9167 126.252 21.8523 126.316 21.7236C127.206 20.2429 128.859 19.2773 130.64 19.2773C130.894 19.2773 131.085 19.2773 131.212 19.3417V22.9467C131.021 22.8823 130.703 22.8823 130.385 22.8823C127.587 22.8181 125.87 25.0068 125.87 28.4832ZM107.11 27.5175C107.11 24.6205 109.273 22.3674 112.071 22.3674C114.869 22.3674 117.031 24.6205 117.031 27.5175C117.031 30.4144 114.869 32.6677 112.071 32.6677C109.273 32.6677 107.11 30.4144 107.11 27.5175ZM107.429 33.5689C107.492 33.5689 107.492 33.5689 107.556 33.5689C107.619 33.5689 107.746 33.6333 107.81 33.6977C109.018 35.114 110.799 35.8866 112.834 35.8866C117.158 35.8866 120.465 32.217 120.465 27.5175C120.465 25.2 119.702 23.14 118.239 21.5304C116.84 19.9855 114.869 19.1485 112.77 19.1485C110.799 19.1485 108.955 19.9855 107.746 21.466C107.683 21.5304 107.556 21.5948 107.429 21.5304C107.301 21.466 107.238 21.4018 107.238 21.273V12.6464H103.74V35.5003H107.238V33.8908C107.238 33.6977 107.301 33.6333 107.429 33.5689ZM92.9293 32.6677C90.1949 32.6677 87.969 30.4144 87.969 27.5175C87.969 24.6205 90.1313 22.3674 92.9293 22.3674C95.7274 22.3674 97.8895 24.6205 97.8895 27.5175C97.8895 30.4144 95.6638 32.6677 92.9293 32.6677ZM101.133 35.4359V19.5348H97.6988V21.1441C97.6988 21.273 97.6351 21.4018 97.508 21.4018C97.3808 21.466 97.2537 21.4018 97.19 21.3374C96.0454 19.921 94.2648 19.1485 92.1662 19.1485C87.8419 19.1485 84.5351 22.8181 84.5351 27.5175C84.5351 32.217 87.9055 35.8866 92.1662 35.8866C94.1375 35.8866 95.9817 35.0496 97.19 33.5689C97.2537 33.4403 97.3808 33.4403 97.508 33.5045C97.6351 33.5689 97.6988 33.6333 97.6988 33.7621V35.5003H101.133V35.4359ZM63.4859 32.6677C60.7514 32.6677 58.5257 30.4144 58.5257 27.5175C58.5257 24.6205 60.6878 22.3674 63.4859 22.3674C66.2203 22.3674 68.4461 24.6205 68.4461 27.5175C68.4461 30.4144 66.2203 32.6677 63.4859 32.6677ZM71.6894 35.4359V19.5348H68.2553V21.1441C68.2553 21.273 68.1918 21.4018 68.0645 21.4018C67.9374 21.466 67.8102 21.4018 67.7466 21.3374C66.6019 19.921 64.8213 19.1485 62.7228 19.1485C58.3984 19.1485 55.0916 22.8181 55.0916 27.5175C55.0916 32.217 58.4621 35.8866 62.7228 35.8866C64.6942 35.8866 66.5384 35.0496 67.7466 33.5689C67.8102 33.4403 67.9374 33.4403 68.0645 33.5045C68.1918 33.5689 68.2553 33.6333 68.2553 33.7621V35.5003H71.6894V35.4359ZM44.9168 32.6677C42.1187 32.6677 39.9566 30.4144 39.9566 27.5175C39.9566 24.6205 42.1187 22.3674 44.9168 22.3674C47.6513 22.3674 49.8771 24.6205 49.8771 27.5175C49.8771 30.4144 47.6513 32.6677 44.9168 32.6677ZM53.1203 35.4359V12.6464H49.6227V21.2086C49.6227 21.3374 49.5591 21.466 49.4319 21.466C49.3047 21.5304 49.1775 21.466 49.1139 21.4018C47.9057 19.9855 46.1251 19.2129 44.0901 19.2129C39.7658 19.2129 36.459 22.8823 36.459 27.582C36.459 29.8995 37.2221 31.9595 38.6847 33.5689C40.0838 35.114 42.0551 35.9508 44.1537 35.9508C46.1251 35.9508 47.9693 35.114 49.1775 33.6333C49.2411 33.5689 49.3683 33.5045 49.4955 33.5689C49.6227 33.6333 49.6863 33.6977 49.6863 33.8265V35.5003H53.1203V35.4359Z" fill="#5F5E5E"/>
<path d="M27.606 21.626L14.5479 29.1712L0.657285 21.132L0 21.4912V27.3298L14.5479 35.7733L27.606 28.228V31.3269L14.5479 38.8722L0.657285 30.8329L0 31.1923V32.1803L14.5479 40.6237L29.1397 32.1803V26.3417L28.4825 25.9824L14.5479 34.0217L1.53363 26.4764V23.4224L14.5479 30.9228L29.1397 22.4793V16.7306L28.3948 16.3264L14.5479 24.3207L2.2347 17.1797L14.5479 10.0836L24.7139 15.9222L25.6342 15.4281V14.7095L14.5479 8.33203L0 16.7306V17.6288L14.5479 26.0723L27.606 18.527V21.626Z" fill="#5F5E5E"/>
</svg>
