<svg width="100" height="50" viewBox="0 0 100 50" fill="none" xmlns="http://www.w3.org/2000/svg">
<g clip-path="url(#clip0_16_10436)">
<path d="M71.4093 14.9889H70.5141H69.8838H69.8081C67.7027 14.9889 65.2127 15.1036 62.294 14.9889H61.8276C61.1972 14.9889 59.8608 14.8679 59.8419 14.8679L58.9089 14.7851C57.6482 14.6768 56.3496 14.5112 54.9691 14.2755L53.9479 14.0972L53.3931 14.0144C53.0401 13.9443 51.5524 13.6131 51.2183 13.5303C50.8842 13.4475 50.6384 13.3902 50.3421 13.3137C49.8126 13.18 49.2768 13.0271 48.7283 12.8679L47.9719 12.6386C47.4613 12.4921 46.9444 12.3201 46.4149 12.1418L45.4693 11.8169C45.0091 11.6577 44.549 11.4857 44.0762 11.3074L54.4711 3.66406L71.4093 14.9889Z" fill="#8C8C8C"/>
<path d="M29.6965 47.4009C28.0155 47.4009 26.7925 46.8914 26.0277 45.8723C25.2628 44.8532 24.872 43.246 24.8552 41.0506V37.8659C24.8552 35.6239 25.246 33.9997 26.0277 32.9933C26.8094 31.9869 28.0575 31.4838 29.7721 31.4838C30.8531 31.4229 31.9237 31.7253 32.8168 32.3436C33.1631 32.578 33.4528 32.888 33.6645 33.2507C33.8762 33.6134 34.0044 34.0196 34.0398 34.4392C34.0469 34.4746 34.0658 34.5065 34.0933 34.5297C34.1208 34.5528 34.1553 34.5658 34.1911 34.5666H36.8134C36.8552 34.5666 36.8953 34.5498 36.9249 34.5199C36.9544 34.4901 36.971 34.4496 36.971 34.4073C36.9604 33.1346 36.4662 31.9146 35.5905 30.9997C34.355 29.5984 32.363 28.8978 29.6145 28.8978C27.0678 28.8978 25.1389 29.6494 23.8277 31.1525C22.5165 32.6557 21.863 34.8978 21.8672 37.8787V41.6621C21.8672 44.4222 22.5228 46.5007 23.834 47.8978C25.1452 49.2948 27.0762 49.9954 29.6271 49.9997C32.7034 49.9997 34.8235 49.1207 35.9876 47.3627C36.3352 46.8641 36.6092 46.3169 36.8008 45.7385C36.9495 45.1539 37.0236 44.5524 37.0215 43.9487C37.0215 43.9076 37.0058 43.868 36.9775 43.8383C36.9493 43.8086 36.9109 43.7911 36.8702 43.7895H34.1974C34.1616 43.7902 34.1271 43.8032 34.0996 43.8264C34.0721 43.8495 34.0532 43.8814 34.0461 43.9169C33.6363 46.0443 32.2243 47.4009 29.6965 47.4009Z" fill="#5F5E5E"/>
<path d="M81.879 31.6175C81.9191 31.6175 81.9576 31.6014 81.986 31.5727C82.0144 31.5441 82.0303 31.5052 82.0303 31.4646V29.0506C82.0312 29.0303 82.0279 29.01 82.0206 28.9911C82.0133 28.9721 82.0022 28.9549 81.988 28.9405C81.9738 28.9261 81.9567 28.9149 81.9379 28.9076C81.9192 28.9002 81.8991 28.8969 81.879 28.8978H77.4664V23.9615C77.4664 23.9209 77.4504 23.882 77.4221 23.8534C77.3937 23.8247 77.3552 23.8086 77.3151 23.8086L74.6297 24.6366C74.5896 24.6366 74.5511 24.6527 74.5227 24.6814C74.4943 24.7101 74.4784 24.7489 74.4784 24.7895V28.8978H71.5472C71.507 28.8978 71.4685 28.9139 71.4402 28.9425C71.4118 28.9712 71.3959 29.0101 71.3959 29.0506V31.4646C71.3959 31.5052 71.4118 31.5441 71.4402 31.5727C71.4685 31.6014 71.507 31.6175 71.5472 31.6175H74.4784V44.3564C74.4784 46.1143 74.8692 47.4009 75.6509 48.2162C76.4326 49.0315 77.6912 49.4477 79.4269 49.4646H81.8853C81.9254 49.4646 81.9639 49.4485 81.9923 49.4199C82.0207 49.3912 82.0366 49.3523 82.0366 49.3118V46.9423C82.0366 46.9018 82.0207 46.8629 81.9923 46.8343C81.9639 46.8056 81.9254 46.7895 81.8853 46.7895H79.6916C79.3813 46.824 79.0673 46.7844 78.7749 46.6737C78.4826 46.5631 78.22 46.3845 78.0085 46.1525C77.6098 45.4801 77.4311 44.6978 77.4979 43.9169V31.6175H81.879Z" fill="#5F5E5E"/>
<path d="M54.9746 34.3946C54.961 34.1333 54.9165 33.8745 54.8422 33.6239C54.5804 32.718 54.1362 31.8767 53.5373 31.1525C52.2261 29.6494 50.2972 28.8978 47.7504 28.8978C45.002 28.8978 43.0079 29.5984 41.7682 30.9997C40.9295 31.9216 40.4775 33.1363 40.5074 34.3882C40.5074 34.4304 40.524 34.4709 40.5536 34.5008C40.5831 34.5307 40.6232 34.5474 40.665 34.5474H43.2874C43.3241 34.5464 43.3593 34.5325 43.3869 34.5081C43.4145 34.4837 43.4328 34.4503 43.4387 34.4137C43.4561 33.9999 43.5675 33.5956 43.7643 33.2323C43.961 32.8689 44.2378 32.5561 44.5734 32.3181C45.4695 31.7011 46.5415 31.3989 47.6244 31.4583C49.339 31.4583 50.5871 31.9615 51.3688 32.9678C51.7288 33.4466 51.9474 34.0185 51.9992 34.6175C51.9992 34.8277 51.9992 35.0443 51.9992 35.2545V37.5092C51.2175 37.4073 50.4358 37.3309 49.6542 37.2799C48.8725 37.229 48.2295 37.2035 47.7252 37.2035C44.9726 37.2035 42.9533 37.7258 41.6673 38.7704C40.3814 39.815 39.7384 41.4731 39.7384 43.7449C39.7384 45.868 40.3498 47.4158 41.5728 48.3882C42.6507 49.229 44.9138 49.6621 47.1957 49.7895C47.7974 49.816 48.4002 49.7947 48.9986 49.7258C50.9217 49.5573 52.8168 49.1486 54.6405 48.5092C54.7378 48.48 54.8236 48.4206 54.8858 48.3395C54.948 48.2584 54.9835 48.1595 54.9872 48.057V35.2035C55.0061 34.9105 54.9935 34.6366 54.9746 34.3946ZM44.5166 46.7067C44.1898 46.5966 43.8911 46.4151 43.6416 46.1751C43.3921 45.9351 43.198 45.6425 43.0731 45.3181C42.8936 44.8096 42.8081 44.272 42.8209 43.7322C42.8209 42.3012 43.1928 41.2799 43.9367 40.6685C44.6805 40.057 46.0253 39.7513 47.9711 39.7513C48.3934 39.7513 50.9086 39.9678 51.8479 40.0761C51.8947 40.0809 51.9381 40.1031 51.9695 40.1384C52.001 40.1737 52.0183 40.2197 52.0181 40.2672V46.2545C52.018 46.2962 52.0053 46.3368 51.9816 46.371C51.958 46.4052 51.9245 46.4312 51.8857 46.4455C49.5242 47.3472 46.9348 47.4389 44.5166 46.7067Z" fill="#5F5E5E"/>
<path d="M99.6808 34.3946C99.6612 34.1413 99.6125 33.8913 99.5359 33.6494C99.2741 32.7435 98.8298 31.9021 98.231 31.178C96.9198 29.6748 94.9908 28.9232 92.4441 28.9232C89.6873 28.9232 87.6932 29.6239 86.4619 31.0252C85.6231 31.9471 85.1712 33.1618 85.2011 34.4137C85.2011 34.4559 85.2177 34.4964 85.2473 34.5263C85.2768 34.5561 85.3169 34.5729 85.3587 34.5729H87.9811C88.0177 34.5719 88.0529 34.558 88.0806 34.5336C88.1082 34.5092 88.1265 34.4758 88.1324 34.4392C88.1498 34.0253 88.2612 33.6211 88.4579 33.2577C88.6547 32.8944 88.9315 32.5816 89.267 32.3436C90.1627 31.7257 91.2351 31.4234 92.3181 31.4838C94.0327 31.4838 95.2808 31.9869 96.0625 32.9933C96.4253 33.4705 96.6442 34.0433 96.6929 34.643C96.6929 34.8532 96.7244 35.0697 96.7244 35.2799V37.5347C95.9427 37.4328 95.161 37.3564 94.3794 37.3054C93.5977 37.2545 92.9484 37.229 92.4441 37.229C89.6957 37.229 87.6785 37.7513 86.3925 38.7959C85.1065 39.8404 84.4657 41.4986 84.4699 43.7704C84.4699 45.8935 85.0813 47.4413 86.3043 48.4137C87.3822 49.2545 89.6453 49.6876 91.9272 49.815C92.5289 49.8415 93.1317 49.8202 93.7301 49.7513C95.6532 49.5828 97.5483 49.1741 99.372 48.5347C99.4693 48.5055 99.5551 48.4461 99.6173 48.365C99.6795 48.2838 99.715 48.185 99.7187 48.0825V35.2035C99.7124 34.9105 99.6998 34.6366 99.6808 34.3946ZM89.2229 46.7067C88.8961 46.5966 88.5974 46.4151 88.3479 46.1751C88.0984 45.9351 87.9043 45.6425 87.7793 45.3181C87.5999 44.8096 87.5144 44.272 87.5272 43.7322C87.5272 42.3012 87.8991 41.2799 88.643 40.6685C89.3868 40.057 90.7316 39.7513 92.6774 39.7513C93.0997 39.7513 95.6149 39.9678 96.5542 40.0761C96.6005 40.0822 96.6431 40.1048 96.6743 40.1398C96.7055 40.1749 96.7233 40.2201 96.7244 40.2672V46.2545C96.7227 46.2957 96.7093 46.3357 96.6858 46.3695C96.6624 46.4034 96.6298 46.4298 96.592 46.4455C94.2305 47.3472 91.6411 47.4389 89.2229 46.7067Z" fill="#5F5E5E"/>
<path d="M68.849 31.8468C68.8864 31.8451 68.9217 31.829 68.9475 31.8017C68.9733 31.7744 68.9877 31.738 68.9877 31.7003V29.0442C68.9877 28.5347 65.5269 29.3181 65.2055 29.42C64.4786 29.5858 63.7959 29.9085 63.204 30.3658C62.6121 30.8231 62.125 31.4044 61.7762 32.0697V29.6557C61.7762 29.6339 61.772 29.6124 61.7637 29.5923C61.7555 29.5722 61.7434 29.5539 61.7282 29.5386C61.713 29.5232 61.6949 29.511 61.675 29.5027C61.6552 29.4944 61.6338 29.4901 61.6123 29.4901H59.0089C58.9654 29.4901 58.9237 29.5075 58.893 29.5386C58.8622 29.5696 58.845 29.6118 58.845 29.6557V49.3117C58.8449 49.3562 58.862 49.3991 58.8926 49.4311C58.9231 49.4632 58.9648 49.482 59.0089 49.4837H61.6943C61.7383 49.482 61.78 49.4632 61.8106 49.4311C61.8411 49.3991 61.8582 49.3562 61.8582 49.3117V38.299C61.8297 37.005 62.0882 35.721 62.6146 34.541C62.9454 33.7941 63.4733 33.1535 64.1404 32.6895C64.8076 32.2255 65.5882 31.956 66.3969 31.9104C66.9802 31.8363 67.5677 31.8002 68.1556 31.8022L68.849 31.8468Z" fill="#5F5E5E"/>
<path d="M69.915 16.1911C29.697 28.6624 0 16.1911 0 16.1911L22.1262 0C30.5228 6.22293 37.8226 10.0828 44.0759 12.465C44.5487 12.6433 45.0089 12.8153 45.469 12.9745L46.4146 13.2994C46.9441 13.4777 47.461 13.6497 47.9716 13.7962L48.7281 14.0255C49.2765 14.1847 49.8123 14.3376 50.3418 14.4713C50.6381 14.5478 50.9281 14.6242 51.2181 14.6879C51.508 14.7516 53.7837 15.2484 53.9791 15.2866L55.0003 15.465C56.3808 15.7006 57.692 15.8662 58.9402 15.9745L59.8731 16.0573C59.8731 16.0573 61.2284 16.1529 61.8588 16.1783H62.3253C65.2439 16.2866 67.7339 16.1783 69.8394 16.1783L69.915 16.1911Z" fill="#5F5E5E"/>
</g>
<defs>
<clipPath id="clip0_16_10436">
<rect width="100" height="50" fill="white"/>
</clipPath>
</defs>
</svg>
