<svg width="240" height="50" viewBox="0 0 240 50" fill="none" xmlns="http://www.w3.org/2000/svg">
<g clip-path="url(#clip0_16_10440)">
<path d="M87.1574 35.5069C81.0757 35.5069 77.1309 31.0541 77.1309 26.4196V25.8452C77.1309 21.1321 81.0757 16.7578 87.1574 16.7578C93.2391 16.7578 97.2179 21.1321 97.2179 25.8452V26.4196C97.2179 31.0541 93.273 35.5069 87.1574 35.5069ZM93.9643 25.8943C93.9643 22.5166 91.5471 19.512 87.1574 19.512C82.7678 19.512 80.3893 22.5215 80.3893 25.8943V26.3165C80.3893 29.6941 82.8065 32.7576 87.1574 32.7576C91.5084 32.7576 93.9643 29.6941 93.9643 26.3165V25.8943Z" fill="#5F5E5E"/>
<path d="M18.4453 34.8245L16.178 30.5042H6.09342L3.88409 34.8245H0.5L9.78208 17.3862H12.4652L21.902 34.8245H18.4453V34.8245ZM11.0439 20.7885L7.30686 28.1231H14.9114L11.0439 20.7885V20.7885ZM36.5454 35.5069C30.3815 35.5069 27.5195 32.0998 27.5195 27.5733V17.3862H30.7199V27.6224C30.7199 30.843 32.8084 32.7576 36.7775 32.7576C40.8529 32.7576 42.5256 30.843 42.5256 27.6224V17.3862H45.7501V27.5585C45.7501 31.8936 43.0429 35.5069 36.5454 35.5069ZM63.6955 20.111V34.8392H60.4709V20.111H52.9679V17.3862H71.1985V20.111H63.6955ZM125.939 34.8245V21.0241L125.088 22.546L117.894 34.8196H116.323L109.207 22.546L108.356 21.0241V34.8245H105.209V17.3862H109.671L116.439 29.3505L117.241 30.8233L118.039 29.3505L124.744 17.3862H129.153V34.8245H125.939ZM153.529 34.8245L151.256 30.5042H141.181L138.991 34.8245H135.607L144.889 17.3862H147.568L156.98 34.8245H153.529V34.8245ZM146.127 20.7885L142.39 28.1231H149.995L146.127 20.7885V20.7885ZM169.975 20.111V34.8392H166.756V20.111H159.253V17.3862H177.478V20.111H169.975ZM193.62 20.111V34.8392H190.396V20.111H182.893V17.3862H201.128V20.111H193.62ZM209.066 34.8245V19.0358C210.352 19.0358 210.87 18.3288 210.87 17.3862H212.247V34.8245H209.066ZM237.478 22.3104C235.628 20.5204 233.174 19.5173 230.618 19.5071C226.03 19.5071 223.449 22.7031 223.449 26.0268V26.3656C223.449 29.6647 226.054 32.7478 230.85 32.7478C233.359 32.6998 235.76 31.6998 237.58 29.9445L239.513 32.0114C237.101 34.2945 233.916 35.5463 230.618 35.5069C224.121 35.5069 220.176 31.2112 220.176 26.4981V25.9237C220.176 21.2107 224.483 16.7578 230.773 16.7578C234.408 16.7578 237.71 18.3043 239.475 20.2386L237.478 22.3104V22.3104ZM87.5543 23.225L84.6019 27.8693C84.4224 28.1515 84.3606 28.4945 84.4302 28.8229C84.4997 29.1513 84.6949 29.4382 84.9727 29.6205L84.9771 29.623C85.1147 29.7132 85.2684 29.775 85.4296 29.8049C85.5907 29.8348 85.756 29.8321 85.9162 29.7971C86.0763 29.7621 86.2281 29.6954 86.3628 29.6008C86.4976 29.5063 86.6126 29.3857 86.7015 29.2459L89.6544 24.6016C89.8336 24.3194 89.8953 23.9765 89.8256 23.6482C89.756 23.3199 89.5608 23.0331 89.2831 22.8509L89.2787 22.848C89.1411 22.7577 88.9874 22.6959 88.8262 22.666C88.6651 22.6361 88.4997 22.6388 88.3396 22.6738C88.1795 22.7088 88.0277 22.7755 87.893 22.8701C87.7582 22.9647 87.6431 23.0853 87.5543 23.225V23.225Z" fill="#5F5E5E"/>
</g>
<defs>
<clipPath id="clip0_16_10440">
<rect width="239" height="50" fill="white" transform="translate(0.5)"/>
</clipPath>
</defs>
</svg>
