<svg width="106" height="50" viewBox="0 0 106 50" fill="none" xmlns="http://www.w3.org/2000/svg">
<path fill-rule="evenodd" clip-rule="evenodd" d="M103.164 19.5024L98.9411 15.2289H91.0972V9.73234H84.4598V34.7691H91.0972V21.9447H96.5261V34.7691H103.164V19.5024ZM82.0481 15.2289H71.7919L67.5686 19.5024V30.4937L71.7919 34.7691H82.0481V28.0527H74.2042V21.9447H82.0481V15.2289ZM65.1554 15.2289H59.7266V9.73234H53.0891V30.4937L57.3124 34.7691H65.1554V28.0527H59.7266V21.9447H65.1554V15.2289ZM50.6759 9.73234H44.0403V12.7866H50.6759V9.73234ZM50.6759 15.2289H44.0403V34.7688H50.6759V15.2289ZM41.6271 15.2289H34.9909V28.0527H32.5783V15.2289H25.9418V28.0527H23.5295V15.2289H16.8921V34.7691H37.4047L41.6271 30.4937V15.2289ZM14.4789 15.2289H9.04973V9.73234H2.4135V30.4937L6.63653 34.7691H14.4789V28.0527H9.04973V21.9447H14.4789V15.2289ZM105.575 18.281V36.6001L96.5261 42.707H90.4935V39.6528L86.2705 42.707H80.8417V39.6528L77.826 42.707H68.1729L65.1554 39.6528L64.5514 42.707H56.1066L52.6531 39.6528L52.4598 42.707H42.8877L42.5492 39.6528L39.9581 42.707H25.3378L22.3209 41.4856V42.707H14.4789L5.42915 37.2098L0 31.7167V7.29036H11.4632L16.8921 12.7866H41.6271V7.29036H62.1388V12.7866H67.5686V15.839L70.5861 12.7866H76.6177L82.0481 7.29036H93.5104V12.7866H100.147L105.575 18.281Z" fill="#5F5E5E"/>
</svg>
