<svg width="193" height="50" viewBox="0 0 193 50" fill="none" xmlns="http://www.w3.org/2000/svg">
<path d="M61.8529 32.3754C59.0582 32.3754 57.4199 30.1472 57.4199 27.624C57.4199 24.7077 59.2831 22.7743 61.8529 22.7743C63.2021 22.7743 64.1016 23.3314 64.9368 23.8557L66.2859 21.3981C65.3223 20.7755 63.7161 20.0218 62.0135 20.0218C57.5805 20.0218 54.4003 23.2331 54.4003 27.624C54.4003 31.9822 57.6447 35.2263 62.0135 35.2263C63.8767 35.2263 65.2259 34.4399 66.2859 33.7845L64.9368 31.3269C64.1016 31.9167 62.8487 32.3754 61.8529 32.3754ZM71.3293 13.3042H74.1883V34.8331H71.3293V13.3042ZM90.6676 20.4806L90.3463 21.7258C89.5755 20.8738 87.9371 20.0218 86.2024 20.0218C82.6689 20.0218 79.4245 22.8726 79.4245 27.5257C79.4245 32.3427 82.6689 35.2591 86.2024 35.2591C87.9371 35.2591 89.5112 34.4071 90.3463 33.5551L90.6676 34.8659H93.0769V20.5789H90.6676V20.4806ZM90.4106 27.7223C90.4106 30.9992 88.4511 32.4737 86.5879 32.4737C84.6927 32.4737 82.5083 31.1631 82.5083 27.5585C82.5083 25.2647 83.6969 22.8071 86.3631 22.8071C88.3869 22.8071 90.4106 24.4783 90.4106 27.5585V27.7223ZM103.292 28.8692C105.252 29.3935 106.087 29.7868 106.087 30.8026C106.087 31.5891 105.412 32.4082 103.838 32.4082C102.393 32.4082 101.204 31.884 100.08 31.2614L98.7949 33.719C99.7907 34.3416 102.007 35.1936 103.838 35.1936C106.986 35.1936 108.817 33.0308 108.817 30.8354C108.817 27.0669 105.187 26.4772 104.224 26.1495C102.2 25.5924 101.686 25.1664 101.686 24.3144C101.686 23.3969 102.457 22.7743 103.935 22.7743C105.219 22.7743 106.183 23.1675 107.083 23.6263L108.432 21.1687C107.147 20.6116 105.637 20.0218 103.935 20.0218C100.851 20.0218 98.9876 22.25 98.9876 24.3144C98.9876 27.624 101.718 28.476 103.292 28.8692ZM118.615 28.8692C120.574 29.3935 121.409 29.7868 121.409 30.8026C121.409 31.5891 120.735 32.4082 119.161 32.4082C117.715 32.4082 116.527 31.884 115.403 31.2614L114.118 33.719C115.113 34.3416 117.33 35.1936 119.161 35.1936C122.309 35.1936 124.14 33.0308 124.14 30.8354C124.14 27.0669 120.51 26.4772 119.547 26.1495C117.523 25.5924 117.009 25.1664 117.009 24.3144C117.009 23.3969 117.78 22.7743 119.257 22.7743C120.542 22.7743 121.506 23.1675 122.406 23.6263L123.755 21.1687C122.47 20.6116 120.96 20.0218 119.257 20.0218C116.174 20.0218 114.31 22.25 114.31 24.3144C114.278 27.624 117.041 28.476 118.615 28.8692ZM136.54 20.0218C134.806 20.0218 133.231 20.8738 132.396 21.7258L132.075 20.415H129.666V40.7642H132.363V33.6862L132.46 33.6206C133.231 34.4726 134.806 35.1608 136.315 35.1608C139.945 35.1608 143.318 32.7687 143.318 27.4274C143.382 22.6432 140.138 20.0218 136.54 20.0218ZM136.218 32.4737C134.356 32.4737 132.396 30.9992 132.396 27.7223V27.5585C132.396 24.4127 134.42 22.8071 136.444 22.8071C139.141 22.8071 140.299 25.2647 140.299 27.5585C140.299 31.1631 138.114 32.4737 136.218 32.4737ZM159.316 20.4806L158.995 21.7913C158.223 20.9393 156.585 20.0873 154.85 20.0873C151.317 20.0873 148.072 22.9381 148.072 27.5912C148.072 32.4082 151.317 35.3246 154.85 35.3246C156.585 35.3246 158.158 34.4726 158.995 33.6206L159.316 34.9314H161.725V20.6444H159.316V20.4806ZM159.026 27.7223C159.026 30.9992 157.067 32.4737 155.203 32.4737C153.308 32.4737 151.124 31.1631 151.124 27.5585C151.124 25.2647 152.312 22.8071 154.979 22.8071C157.002 22.8071 159.026 24.4783 159.026 27.5585V27.7223ZM171.94 28.8692C173.899 29.3935 174.734 29.7868 174.734 30.8026C174.734 31.5891 174.06 32.4082 172.486 32.4082C171.04 32.4082 169.852 31.884 168.727 31.2614L167.443 33.719C168.438 34.3416 170.655 35.1936 172.486 35.1936C175.634 35.1936 177.465 33.0308 177.465 30.8354C177.465 27.0669 173.835 26.4772 172.872 26.1495C170.847 25.5924 170.334 25.1664 170.334 24.3144C170.334 23.3969 171.105 22.7743 172.582 22.7743C173.867 22.7743 174.831 23.1675 175.731 23.6263L177.08 21.1687C175.795 20.6116 174.285 20.0218 172.582 20.0218C169.499 20.0218 167.635 22.25 167.635 24.3144C167.603 27.624 170.366 28.476 171.94 28.8692ZM187.231 28.8692C189.19 29.3935 190.025 29.7868 190.025 30.8026C190.025 31.5891 189.351 32.4082 187.776 32.4082C186.331 32.4082 185.143 31.884 184.018 31.2614L182.733 33.719C183.729 34.3416 185.946 35.1936 187.776 35.1936C190.925 35.1936 192.756 33.0308 192.756 30.8354C192.756 27.0669 189.126 26.4772 188.163 26.1495C186.138 25.5924 185.625 25.1664 185.625 24.3144C185.625 23.3969 186.396 22.7743 187.873 22.7743C189.158 22.7743 190.122 23.1675 191.021 23.6263L192.371 21.1687C191.086 20.6116 189.575 20.0218 187.873 20.0218C184.79 20.0218 182.926 22.25 182.926 24.3144C182.926 27.624 185.688 28.476 187.231 28.8692Z" fill="#5F5E5E"/>
<path d="M29.8866 8.75H24.7148C23.8154 8.75 22.9159 9.43804 22.8196 10.3556L22.0486 14.124C21.9522 14.8121 21.374 15.2708 20.6994 15.2708H14.9815C7.2397 15.3691 0.0761719 21.333 0.0761719 29.7872C0.0761719 37.324 6.24387 44.2054 15.11 44.2054H20.9564C21.8558 44.2054 22.7553 43.5173 22.8517 42.5997L23.6227 38.8314C23.719 38.1432 24.2973 37.6845 24.9718 37.6845H30.0151C38.6564 37.6845 45.0489 30.9341 45.0489 23.2664C44.9204 14.8121 37.8533 8.75 29.8866 8.75ZM29.7582 32.0811H23.6869C22.7874 32.0811 22.0165 32.7692 21.7916 33.6867L21.0206 37.3568C20.9242 38.0449 20.346 38.5037 19.6715 38.5037H15.1741C10.5805 38.5037 5.63352 35.194 5.63352 29.6889C5.63352 24.6426 10.0023 20.8742 15.1741 20.8742H22.1128C23.0123 20.8742 23.7833 20.1861 24.0081 19.2687L24.779 15.5985C24.8754 14.9104 25.4536 14.4516 26.1282 14.4516H29.726C34.5445 14.4516 39.2667 17.8924 39.2667 23.2664C39.2024 28.1816 35.0585 32.0811 29.7582 32.0811Z" fill="#5F5E5E"/>
</svg>
