<svg width="44" height="45" viewBox="0 0 44 45" fill="none" xmlns="http://www.w3.org/2000/svg">
<path opacity="0.4" d="M23.6667 7.91797H13.6667C7.96667 7.91797 5.75 10.1346 5.75 15.8346V29.168C5.75 33.0013 7.83333 37.0846 13.6667 37.0846H23.6667C29.3667 37.0846 31.5833 34.868 31.5833 29.168V15.8346C31.5833 10.1346 29.3667 7.91797 23.6667 7.91797Z" fill="#E0FF70"/>
<path d="M21.1665 21.4659C22.897 21.4659 24.2999 20.063 24.2999 18.3326C24.2999 16.6021 22.897 15.1992 21.1665 15.1992C19.436 15.1992 18.0332 16.6021 18.0332 18.3326C18.0332 20.063 19.436 21.4659 21.1665 21.4659Z" fill="#E0FF70"/>
<path d="M38.0841 12.7834C37.4008 12.4334 35.9674 12.0334 34.0174 13.4L31.5508 15.1334C31.5674 15.3667 31.5841 15.5834 31.5841 15.8334V29.1667C31.5841 29.4167 31.5508 29.6334 31.5508 29.8667L34.0174 31.6C35.0508 32.3334 35.9508 32.5667 36.6674 32.5667C37.2841 32.5667 37.7674 32.4 38.0841 32.2334C38.7674 31.8834 39.9174 30.9334 39.9174 28.55V16.4667C39.9174 14.0834 38.7674 13.1334 38.0841 12.7834Z" fill="#E0FF70"/>
</svg>
