<svg width="44" height="45" viewBox="0 0 44 45" fill="none" xmlns="http://www.w3.org/2000/svg">
<path d="M22.8331 27.0833H18.6664C17.9831 27.0833 17.4164 26.5167 17.4164 25.8333C17.4164 25.15 17.9831 24.5833 18.6664 24.5833H22.8331C27.1997 24.5833 30.7497 21.0333 30.7497 16.6667C30.7497 12.3 27.1997 8.75 22.8331 8.75H14.4997C10.1331 8.75 6.58308 12.3 6.58308 16.6667C6.58308 18.5 7.23307 20.2833 8.39974 21.7C8.83307 22.2333 8.76641 23.0166 8.23307 23.4666C7.69974 23.9 6.91641 23.8334 6.46641 23.3C4.91641 21.4334 4.06641 19.0833 4.06641 16.6667C4.06641 10.9167 8.73307 6.25 14.4831 6.25H22.8164C28.5664 6.25 33.2331 10.9167 33.2331 16.6667C33.2331 22.4167 28.5831 27.0833 22.8331 27.0833Z" fill="#E0FF70"/>
<path opacity="0.4" d="M29.5 38.7513H21.1667C15.4167 38.7513 10.75 34.0846 10.75 28.3346C10.75 22.5846 15.4167 17.918 21.1667 17.918H25.3333C26.0167 17.918 26.5833 18.4846 26.5833 19.168C26.5833 19.8513 26.0167 20.418 25.3333 20.418H21.1667C16.8 20.418 13.25 23.968 13.25 28.3346C13.25 32.7013 16.8 36.2513 21.1667 36.2513H29.5C33.8667 36.2513 37.4167 32.7013 37.4167 28.3346C37.4167 26.5013 36.7667 24.718 35.6 23.3013C35.1667 22.768 35.2333 21.9847 35.7667 21.5347C36.3 21.0847 37.0833 21.168 37.5333 21.7013C39.0833 23.5679 39.9333 25.918 39.9333 28.3346C39.9167 34.0846 35.25 38.7513 29.5 38.7513Z" fill="#E0FF70"/>
</svg>
