<svg width="44" height="45" viewBox="0 0 44 45" fill="none" xmlns="http://www.w3.org/2000/svg">
<path opacity="0.4" d="M22.0007 30.8333V34.8C22.0007 37.9167 20.7507 39.1667 17.6173 39.1667H9.70065C6.58398 39.1667 5.33398 37.9167 5.33398 34.8V26.8833C5.33398 23.75 6.58398 22.5 9.70065 22.5H13.6673V26.45C13.6673 29.5833 14.9173 30.8333 18.034 30.8333H22.0007Z" fill="#E0FF70"/>
<path opacity="0.6" d="M30.3327 22.5013V26.4513C30.3327 29.5846 29.0827 30.8346 25.9493 30.8346H18.0327C14.916 30.8346 13.666 29.5846 13.666 26.4513V18.5346C13.666 15.418 14.916 14.168 18.0327 14.168H21.9993V18.118C21.9993 21.2513 23.2493 22.5013 26.366 22.5013H30.3327Z" fill="#E0FF70"/>
<path d="M38.6667 10.1987V18.1154C38.6667 21.2487 37.4167 22.4987 34.2833 22.4987H26.3667C23.25 22.4987 22 21.2487 22 18.1154V10.1987C22 7.08203 23.25 5.83203 26.3667 5.83203H34.2833C37.4167 5.83203 38.6667 7.08203 38.6667 10.1987Z" fill="#E0FF70"/>
</svg>
