<svg width="44" height="45" viewBox="0 0 44 45" fill="none" xmlns="http://www.w3.org/2000/svg">
<path opacity="0.4" d="M22.0008 39.1656C29.9813 39.1656 36.4508 32.6961 36.4508 24.7156C36.4508 16.7351 29.9813 10.2656 22.0008 10.2656C14.0203 10.2656 7.55078 16.7351 7.55078 24.7156C7.55078 32.6961 14.0203 39.1656 22.0008 39.1656Z" fill="#E0FF70"/>
<path d="M22 25.4154C21.3167 25.4154 20.75 24.8487 20.75 24.1654V15.832C20.75 15.1487 21.3167 14.582 22 14.582C22.6833 14.582 23.25 15.1487 23.25 15.832V24.1654C23.25 24.8487 22.6833 25.4154 22 25.4154Z" fill="#E0FF70"/>
<path d="M26.8158 8.2487H17.1824C16.5158 8.2487 15.9824 7.71536 15.9824 7.0487C15.9824 6.38203 16.5158 5.83203 17.1824 5.83203H26.8158C27.4824 5.83203 28.0158 6.36536 28.0158 7.03203C28.0158 7.6987 27.4824 8.2487 26.8158 8.2487Z" fill="#E0FF70"/>
</svg>
