<svg width="117" height="32" viewBox="0 0 117 32" fill="none" xmlns="http://www.w3.org/2000/svg">
<path d="M24 14.0222C24 7.32574 18.5342 1.90818 11.8285 2.00118C5.38974 2.09105 0.124243 7.33827 0.00222184 13.7892C-0.0978948 19.0657 3.19552 23.5847 7.8426 25.3044C8.00843 25.3661 8.071 25.5698 7.96774 25.7129C6.67249 27.5258 4.55336 28.7085 2.15785 28.7085C2.15161 28.7085 2.14429 28.7085 2.13804 28.7085C1.87002 28.7085 1.8064 29.0827 2.06086 29.1663C3.70341 29.7064 5.45753 30 7.28049 30C14.7997 30 21.1581 25.0265 23.2605 18.1848C23.7381 16.8883 23.9989 15.486 23.9989 14.0232L24 14.0222Z" fill="#222222"/>
<path d="M31.2691 13.6C31.2691 11.12 32.0851 9.048 33.7171 7.384C35.3651 5.72 37.4371 4.888 39.9331 4.888C42.4291 4.888 44.4931 5.728 46.1251 7.408C47.7571 9.072 48.5731 11.136 48.5731 13.6C48.5731 16.08 47.7571 18.152 46.1251 19.816C44.4931 21.48 42.4211 22.312 39.9091 22.312C37.4131 22.312 35.3491 21.488 33.7171 19.84C32.0851 18.176 31.2691 16.096 31.2691 13.6ZM34.0531 13.6C34.0531 15.392 34.6051 16.88 35.7091 18.064C36.8291 19.232 38.2371 19.816 39.9331 19.816C41.6131 19.816 43.0131 19.232 44.1331 18.064C45.2531 16.88 45.8131 15.392 45.8131 13.6C45.8131 11.824 45.2531 10.344 44.1331 9.16C43.0131 7.976 41.6131 7.384 39.9331 7.384C38.2371 7.384 36.8291 7.976 35.7091 9.16C34.6051 10.344 34.0531 11.824 34.0531 13.6ZM50.8781 26.488V9.472H53.3501V11.128C53.5421 10.872 53.7581 10.624 53.9981 10.384C54.2541 10.144 54.6941 9.88 55.3181 9.592C55.9581 9.304 56.6461 9.16 57.3821 9.16C59.1741 9.16 60.6381 9.776 61.7741 11.008C62.9261 12.24 63.5021 13.808 63.5021 15.712C63.5021 17.664 62.9501 19.256 61.8461 20.488C60.7581 21.704 59.3261 22.312 57.5501 22.312C56.5261 22.312 55.6621 22.096 54.9581 21.664C54.2541 21.216 53.7661 20.776 53.4941 20.344V26.488H50.8781ZM53.3981 15.712C53.3981 17.024 53.7501 18.064 54.4541 18.832C55.1741 19.6 56.0701 19.984 57.1421 19.984C58.2301 19.984 59.1181 19.592 59.8061 18.808C60.5101 18.008 60.8621 16.976 60.8621 15.712C60.8621 14.448 60.5101 13.432 59.8061 12.664C59.1021 11.88 58.2061 11.488 57.1181 11.488C55.9981 11.488 55.0941 11.896 54.4061 12.712C53.7341 13.528 53.3981 14.528 53.3981 15.712ZM65.6906 22V9.472H68.3066V22H65.6906ZM65.8106 7.552C65.5066 7.232 65.3546 6.84 65.3546 6.376C65.3546 5.912 65.5066 5.528 65.8106 5.224C66.1306 4.904 66.5226 4.744 66.9866 4.744C67.4506 4.744 67.8346 4.904 68.1386 5.224C68.4586 5.528 68.6186 5.912 68.6186 6.376C68.6186 6.84 68.4586 7.232 68.1386 7.552C67.8346 7.856 67.4506 8.008 66.9866 8.008C66.5226 8.008 66.1306 7.856 65.8106 7.552ZM77.3413 9.16C78.8453 9.16 79.9493 9.664 80.6533 10.672C81.3573 11.68 81.7093 12.944 81.7093 14.464V22H79.1173V14.248C79.1173 13.4 78.8773 12.736 78.3973 12.256C77.9333 11.76 77.3333 11.512 76.5973 11.512C75.7813 11.512 75.1173 11.784 74.6053 12.328C74.1093 12.872 73.8613 13.576 73.8613 14.44V22H71.2453V9.472H73.8133V11.104C74.1173 10.56 74.5813 10.104 75.2053 9.736C75.8453 9.352 76.5573 9.16 77.3413 9.16ZM85.5903 20.488C84.3903 19.272 83.7903 17.704 83.7903 15.784C83.7903 13.864 84.3743 12.28 85.5423 11.032C86.7103 9.784 88.1583 9.16 89.8863 9.16C91.7583 9.16 93.2303 9.76 94.3023 10.96C95.3743 12.144 95.9103 13.728 95.9103 15.712C95.9103 16 95.9023 16.216 95.8863 16.36H86.4543C86.4703 17.464 86.8383 18.352 87.5583 19.024C88.2943 19.696 89.2223 20.032 90.3423 20.032C91.8463 20.032 92.9983 19.448 93.7983 18.28L95.5263 19.576C95.1263 20.264 94.4863 20.896 93.6063 21.472C92.7263 22.032 91.6223 22.312 90.2943 22.312C88.3583 22.312 86.7903 21.704 85.5903 20.488ZM86.5503 14.56H93.2463C93.1983 13.552 92.8623 12.768 92.2383 12.208C91.6143 11.632 90.8383 11.344 89.9103 11.344C88.9983 11.344 88.2303 11.64 87.6063 12.232C86.9823 12.808 86.6303 13.584 86.5503 14.56Z" fill="#222222"/>
</svg>
